<svg width="24" height="24" viewBox="0 0 24 24" fill="none" xmlns="http://www.w3.org/2000/svg">
<path d="M1.9878 20.9978C1.73334 21.21 1.30926 20.9129 1.4789 20.6158L7.20403 8.6051C7.45848 8.09581 8.13702 8.05337 8.43388 8.52021L11.9114 13.9102L13.6925 10.2603L10.2998 6.78014C10.0878 6.56794 10.1726 6.22841 10.4271 6.14353L22.047 1.94189C22.3014 1.85701 22.5983 2.02678 22.5559 2.32386L22.1318 16.4566C22.1318 16.7962 21.7077 16.9659 21.4533 16.7113L18.2726 13.4433L12.7595 21.7617C12.4627 22.1861 11.8265 22.1861 11.5721 21.7617L7.88257 15.9898L1.9878 20.9978Z" fill="#0090FF"/>
</svg>
