<svg width="24" height="24" viewBox="0 0 24 24" fill="none" xmlns="http://www.w3.org/2000/svg">
<path d="M18.9474 8.1465L9.45125 17.0038L7.59019 15.1366L12.1713 10.5404L12.5053 9.53494L11.5032 9.87008L6.92212 14.4663L5.06105 12.5991L13.8892 3.07151L19.1383 2.88L18.9474 8.1465ZM9.59441 18.6795L3.15227 12.2161C2.81823 11.8809 2.29332 11.8809 1.95929 12.2161L1.48209 12.6948C1.14805 13.03 1.14805 13.5566 1.48209 13.8918L3.77263 16.1899L0.766298 19.2061C0.384541 19.5892 0.384541 20.2594 0.766298 20.6425L1.19577 21.0734C1.57753 21.4564 2.2456 21.4564 2.62736 21.0734L5.63369 18.0571L7.92422 20.3552C8.25826 20.6903 8.78317 20.6903 9.11721 20.3552L9.59441 19.8764C9.92844 19.5413 9.92844 19.0146 9.59441 18.6795ZM20.5222 16.2378V20.8818C20.5222 21.2649 20.1881 21.6 19.8064 21.6H17.8976C17.5159 21.6 17.1818 21.2649 17.1818 20.8818V16.2378H14.5095C14.2232 16.2378 14.08 15.9026 14.2709 15.6632L18.3271 11.2106C18.518 10.9234 18.9474 10.9234 19.186 11.2106L23.4331 15.6632C23.6239 15.9026 23.4808 16.2378 23.1945 16.2378H20.5222Z" fill="white"/>
</svg>
