<svg width="40" height="40" viewBox="0 0 40 40" fill="none" xmlns="http://www.w3.org/2000/svg">
<path d="M32.4165 34L22.0831 23.6667C21.2498 24.3611 20.2987 24.8956 19.2298 25.27C18.1598 25.6456 17.0554 25.8334 15.9165 25.8334C13.1387 25.8334 10.7842 24.8678 8.85313 22.9367C6.92313 21.0067 5.95813 18.6528 5.95813 15.875C5.95813 13.0972 6.92313 10.7428 8.85313 8.81169C10.7842 6.88169 13.1387 5.91669 15.9165 5.91669C18.6942 5.91669 21.0487 6.88169 22.9798 8.81169C24.9098 10.7428 25.8748 13.0972 25.8748 15.875C25.8748 17.0417 25.6804 18.1667 25.2915 19.25C24.9026 20.3334 24.3748 21.2639 23.7081 22.0417L34.0415 32.3334L32.4165 34ZM15.9165 23.5C18.0554 23.5 19.8609 22.7639 21.3331 21.2917C22.8054 19.8195 23.5415 18.0139 23.5415 15.875C23.5415 13.7361 22.8054 11.9306 21.3331 10.4584C19.8609 8.98613 18.0554 8.25002 15.9165 8.25002C13.7776 8.25002 11.972 8.98613 10.4998 10.4584C9.02757 11.9306 8.29146 13.7361 8.29146 15.875C8.29146 18.0139 9.02757 19.8195 10.4998 21.2917C11.972 22.7639 13.7776 23.5 15.9165 23.5Z" fill="black"/>
</svg>
