<svg width="24" height="24" viewBox="0 0 24 24" fill="none" xmlns="http://www.w3.org/2000/svg">
<path d="M15.248 9.66649L13.4676 7.52416L11.6872 9.66649C11.1098 10.3481 10.0993 10.3481 9.52191 9.66649L7.74155 7.52416L6.0093 9.6178C5.52812 10.2021 4.61387 10.3968 3.98833 9.90993C3.31468 9.42304 3.21844 8.44926 3.74774 7.8163L6.63483 4.35937C7.21224 3.67772 8.22272 3.67772 8.80014 4.35937L10.5805 6.50169L12.3609 4.35937C12.9383 3.67772 13.9488 3.67772 14.5262 4.35937L16.3066 6.50169L18.0388 4.40806C18.52 3.82379 19.4342 3.62903 20.0598 4.11592C20.7334 4.60281 20.8296 5.5766 20.3003 6.20956L17.4133 9.66649C16.8358 10.3481 15.7773 10.3481 15.248 9.66649ZM17.4133 20.1347L20.3003 16.6777C20.8296 16.0448 20.7334 15.071 20.0598 14.5841C19.4342 14.0972 18.52 14.2433 18.0388 14.8762L16.3066 16.9212L14.5262 14.7788C13.9488 14.0972 12.9383 14.0972 12.3609 14.7788L10.5324 16.9212L8.75202 14.7788C8.1746 14.0972 7.16412 14.0972 6.5867 14.7788L3.69962 18.2358C3.17032 18.8687 3.26656 19.8425 3.94021 20.3294C4.56575 20.8163 5.48 20.6702 5.96118 20.0373L7.69343 17.9436L9.47379 20.086C10.0512 20.7676 11.0617 20.7676 11.6391 20.086L13.4195 17.9436L15.1998 20.086C15.7773 20.8163 16.8358 20.8163 17.4133 20.1347Z" fill="#D60EF9"/>
</svg>
