<svg width="24" height="24" viewBox="0 0 24 24" fill="none" xmlns="http://www.w3.org/2000/svg">
<path d="M21.0961 7.63194C21.0961 8.35194 20.7146 9.07194 20.0469 9.50394L18.2822 10.5599H17.7099C16.8991 10.5599 16.2313 11.1359 16.0883 11.9039V12.0959C16.0883 12.1439 16.0883 12.1919 16.0883 12.2399V15.9359H14.3713C14.2759 15.9359 14.2282 15.9359 14.1328 15.9359L13.942 15.9839C13.6082 16.0799 13.322 16.3679 13.1789 16.7039C12.9881 17.1839 13.0835 17.7599 13.4174 18.1439L13.8943 18.6719V20.3999C13.8943 21.5999 12.9404 22.5599 11.7481 22.5599C10.5557 22.5599 9.60184 21.5999 9.60184 20.3999V15.8399L5.69092 18.1919C4.68935 18.8159 3.35391 18.4799 2.73388 17.4719C2.11386 16.4639 2.44772 15.1199 3.44929 14.4959L7.55099 11.9999L3.44929 9.50394C2.78158 9.11994 2.40002 8.39994 2.40002 7.63194C2.40002 7.24794 2.49541 6.86394 2.68619 6.52794C3.30621 5.51994 4.59395 5.18394 5.64323 5.80794L9.55415 8.15994V3.59994C9.55415 2.39994 10.508 1.43994 11.7004 1.43994C12.2727 1.43994 12.845 1.67994 13.2266 2.06394C13.6082 2.44794 13.8466 2.97594 13.8466 3.59994V8.15994L17.7099 5.80794C18.7114 5.18394 20.0469 5.51994 20.6669 6.52794C21.0008 6.86394 21.0961 7.24794 21.0961 7.63194Z" fill="#96EBF0"/>
<path d="M17.1852 16.992V12.336C17.1852 11.952 17.519 11.616 17.9006 11.616H19.8084C20.1899 11.616 20.5238 11.952 20.5238 12.336V16.992H23.1946C23.4808 16.992 23.6239 17.328 23.4331 17.568L19.3791 22.032C19.1883 22.32 18.7591 22.32 18.5206 22.032L14.2758 17.568C14.0851 17.328 14.2281 16.992 14.5143 16.992H17.1852Z" fill="#787878"/>
</svg>
