<svg width="24" height="24" viewBox="0 0 24 24" fill="none" xmlns="http://www.w3.org/2000/svg">
<path d="M14.884 6.1983H7.05187C6.862 6.1983 6.67212 6.34091 6.67212 6.57859V10.6192C6.67212 12.2829 7.24174 13.8992 8.28603 15.0876C9.71006 16.7038 10.4221 17.3218 10.9442 17.3218C11.229 17.3218 11.5613 17.1792 12.036 16.7513C12.036 16.7038 11.9885 16.7038 11.9885 16.6563C11.6088 15.8482 11.7986 14.8974 12.3683 14.2319L15.1689 11.1421C15.1689 10.9519 15.1689 10.7618 15.1689 10.5716V6.57859C15.2163 6.34091 15.0739 6.1983 14.884 6.1983ZM14.884 6.1983H7.05187C6.862 6.1983 6.67212 6.34091 6.67212 6.57859V10.6192C6.67212 12.2829 7.24174 13.8992 8.28603 15.0876C9.71006 16.7038 10.4221 17.3218 10.9442 17.3218C11.229 17.3218 11.5613 17.1792 12.036 16.7513C12.036 16.7038 11.9885 16.7038 11.9885 16.6563C11.6088 15.8482 11.7986 14.8974 12.3683 14.2319L15.1689 11.1421C15.1689 10.9519 15.1689 10.7618 15.1689 10.5716V6.57859C15.2163 6.34091 15.0739 6.1983 14.884 6.1983ZM18.7764 1.92004H3.15951C2.7323 1.92004 2.40002 2.2528 2.40002 2.68062V10.6192C2.40002 13.2812 3.34938 15.8957 5.05822 17.8922C6.67213 19.7461 8.38096 21.6 10.9442 21.6C12.3208 21.6 13.4125 21.0771 14.4094 20.3166C14.6467 20.1264 14.8366 19.7937 14.8366 19.5084V18.4151C14.8366 18.1774 14.6467 17.9873 14.4094 17.9873C14.3144 17.9873 14.2195 17.9873 14.1246 17.9873C13.6499 17.9398 13.1752 18.0824 12.8429 18.3676C12.2259 18.8429 11.6562 19.0806 10.9917 19.0806C9.71006 19.0806 8.71324 18.1774 7.05187 16.276C5.72277 14.7548 5.01075 12.7583 5.01075 10.6667V5.15251C5.01075 4.77222 5.29556 4.487 5.6753 4.487H16.3081C16.6878 4.487 16.9726 4.77222 16.9726 5.15251V9.38323C17.3524 9.14555 17.827 9.00294 18.3017 9.00294C18.7289 9.00294 19.1561 9.14555 19.5359 9.3357V2.68062C19.4884 2.2528 19.1561 1.92004 18.7764 1.92004ZM14.884 6.1983H7.05187C6.862 6.1983 6.67212 6.34091 6.67212 6.57859V10.6192C6.67212 12.2829 7.24174 13.8992 8.28603 15.0876C9.71006 16.7038 10.4221 17.3218 10.9442 17.3218C11.229 17.3218 11.5613 17.1792 12.036 16.7513C12.036 16.7038 11.9885 16.7038 11.9885 16.6563C11.6088 15.8482 11.7986 14.8974 12.3683 14.2319L15.1689 11.1421C15.1689 10.9519 15.1689 10.7618 15.1689 10.5716V6.57859C15.2163 6.34091 15.0739 6.1983 14.884 6.1983ZM20.058 16.0858V20.6969C20.058 21.0771 19.7258 21.4099 19.346 21.4099H17.4473C17.0676 21.4099 16.7353 21.0771 16.7353 20.6969V16.0858H14.0771C13.7923 16.0858 13.6499 15.7531 13.8398 15.5154L17.8745 11.0945C18.0644 10.8093 18.4916 10.8093 18.7289 11.0945L22.9536 15.5154C23.1434 15.7531 23.001 16.0858 22.7162 16.0858H20.058ZM20.058 16.0858V20.6969C20.058 21.0771 19.7258 21.4099 19.346 21.4099H17.4473C17.0676 21.4099 16.7353 21.0771 16.7353 20.6969V16.0858H14.0771C13.7923 16.0858 13.6499 15.7531 13.8398 15.5154L17.8745 11.0945C18.0644 10.8093 18.4916 10.8093 18.7289 11.0945L22.9536 15.5154C23.1434 15.7531 23.001 16.0858 22.7162 16.0858H20.058Z" fill="white"/>
</svg>
