<svg width="24" height="24" viewBox="0 0 24 24" fill="none" xmlns="http://www.w3.org/2000/svg">
<path d="M15.8513 12.012C15.8513 14.2228 14.087 16.001 11.9413 16.001C9.79548 16.001 8.03117 14.2228 8.03117 12.012C8.03117 9.80128 9.79548 8.02305 11.9413 8.02305C14.087 8.02305 15.8513 9.80128 15.8513 12.012ZM11.9413 2.40002C10.8445 2.40002 9.98621 3.31317 9.98621 4.37049C9.98621 5.42781 10.8445 6.34095 11.9413 6.34095C13.038 6.34095 13.8963 5.42781 13.8963 4.37049C13.8963 3.31317 13.038 2.40002 11.9413 2.40002ZM11.9413 17.6351C10.8445 17.6351 9.98621 18.5482 9.98621 19.6055C9.98621 20.6629 10.8445 21.576 11.9413 21.576C13.038 21.576 13.8963 20.6629 13.8963 19.6055C13.8963 18.5482 13.038 17.6351 11.9413 17.6351ZM3.59656 16.4816C4.12109 17.4428 5.2655 17.8273 6.21918 17.2986C7.17286 16.77 7.55433 15.5685 7.02981 14.6073C6.50528 13.6461 5.36087 13.2616 4.40719 13.7903C3.45351 14.3189 3.07204 15.5204 3.59656 16.4816ZM16.8527 9.36874C17.3772 10.3299 18.5216 10.7144 19.4753 10.1858C20.429 9.65709 20.8105 8.45559 20.2859 7.49439C19.7614 6.53319 18.617 6.14871 17.6633 6.67737C16.7096 7.20603 16.3282 8.40753 16.8527 9.36874ZM3.88267 6.72543C3.31046 7.68663 3.64425 8.88813 4.55024 9.46485C5.45624 10.0416 6.69602 9.75321 7.22054 8.79201C7.79275 7.83081 7.45896 6.62931 6.55297 6.05259C5.64697 5.47587 4.40719 5.81229 3.88267 6.72543Z" fill="#FF9600"/>
<path d="M17.1866 16.3375V12.3966C17.1866 12.0121 17.5204 11.6757 17.9019 11.6757H19.8092C20.1907 11.6757 20.5245 12.0121 20.5245 12.3966V16.3375H23.1948C23.4809 16.3375 23.6239 16.6739 23.4332 16.9142L19.3801 21.3838C19.1893 21.6722 18.7602 21.6722 18.5218 21.3838L14.2779 16.9142C14.0872 16.6739 14.2302 16.3375 14.5163 16.3375H17.1866Z" fill="#787878"/>
</svg>
