<svg width="24" height="24" viewBox="0 0 24 24" fill="none" xmlns="http://www.w3.org/2000/svg">
<path fill-rule="evenodd" clip-rule="evenodd" d="M6.29171 2.39999H17.7083C18.0273 2.39999 18.24 2.62857 18.24 2.97142V4.11428C18.24 4.45714 18.0273 4.68571 17.7083 4.68571H6.29171C5.9727 4.68571 5.76002 4.45714 5.76002 4.11428V2.97142C5.76002 2.62857 5.9727 2.39999 6.29171 2.39999ZM17.0582 5.33335H6.94126C6.67616 5.33335 6.45939 5.54978 6.47606 5.81435C6.63756 8.37819 8.08872 9.43034 9.22775 10.2562C9.99162 10.81 10.6151 11.2621 10.6151 12C10.6151 12.6972 10.0586 13.0116 9.35297 13.4103C8.18676 14.0691 6.61325 14.9581 6.47156 18.1856C6.45994 18.4504 6.67616 18.6667 6.94126 18.6667H17.0582C17.3233 18.6667 17.5395 18.4504 17.5279 18.1856C17.3862 14.9581 15.8127 14.0691 14.6465 13.4103C13.9408 13.0116 13.3843 12.6972 13.3843 12C13.3843 11.2329 14.0192 10.7745 14.7926 10.2161C15.9284 9.39598 17.3628 8.36023 17.5234 5.81437C17.5401 5.5498 17.3233 5.33335 17.0582 5.33335ZM17.7083 19.3143H6.2917C5.97269 19.3143 5.76001 19.5429 5.76001 19.8857V21.0286C5.76001 21.3714 5.97269 21.6 6.2917 21.6H17.7083C18.0273 21.6 18.24 21.3714 18.24 21.0286V19.8857C18.24 19.5429 18.0273 19.3143 17.7083 19.3143Z" fill="#787878"/>
</svg>
